<?xml version="1.0" encoding="utf-8"?>
<!-- Generator: Adobe Illustrator 23.1.0, SVG Export Plug-In . SVG Version: 6.00 Build 0)  -->
<svg version="1.1" id="Layer_1" xmlns="http://www.w3.org/2000/svg" xmlns:xlink="http://www.w3.org/1999/xlink" x="0px" y="0px"
	 viewBox="0 0 161 211" style="enable-background:new 0 0 161 211;" xml:space="preserve">
<style type="text/css">
	.st0{fill:#77AAD4;}
	.st1{fill:#1D71B8;}
	.st2{fill:#1D1D1B;}
</style>
<g>
	<path class="st0" d="M434,188c39.8,0,72-32.2,72-72l0,0c0,39.8,32.2,72,72,72l0,0c-39.8,0-72,32.2-72,72l0,0
		C506,220.2,473.8,188,434,188L434,188z"/>
	<path class="st0" d="M674,244c61.9,0,112-50.1,112-112l0,0c0,61.9,50.1,112,112,112l0,0c-61.9,0-112,50.1-112,112l0,0
		C786,294.1,735.9,244,674,244L674,244z"/>
	<path class="st0" d="M522-60c48.6,0,88-39.4,88-88l0,0c0,48.6,39.4,88,88,88l0,0c-48.6,0-88,39.4-88,88l0,0
		C610-20.6,570.6-60,522-60L522-60z"/>
</g>
<g>
	<path class="st1" d="M593,82.3c19.9,0,36-16.1,36-36l0,0c0,19.9,16.1,36,36,36l0,0c-19.9,0-36,16.1-36,36l0,0
		C629,98.4,612.9,82.3,593,82.3L593,82.3z"/>
	<path class="st1" d="M945,86.3c22.1,0,40-17.9,40-40l0,0c0,22.1,17.9,40,40,40l0,0c-22.1,0-40,17.9-40,40l0,0
		C985,104.2,967.1,86.3,945,86.3L945,86.3z"/>
	<path class="st1" d="M753,126.3c22.1,0,40-17.9,40-40l0,0c0,22.1,17.9,40,40,40l0,0c-22.1,0-40,17.9-40,40l0,0
		C793,144.2,775.1,126.3,753,126.3L753,126.3z"/>
	<path class="st1" d="M513-73.7c22.1,0,40-17.9,40-40l0,0c0,22.1,17.9,40,40,40l0,0c-22.1,0-40,17.9-40,40l0,0
		C553-55.8,535.1-73.7,513-73.7L513-73.7z"/>
	<path class="st1" d="M833-81.7c22.1,0,40-17.9,40-40l0,0c0,22.1,17.9,40,40,40l0,0c-22.1,0-40,17.9-40,40l0,0
		C873-63.8,855.1-81.7,833-81.7L833-81.7z"/>
	<path class="st1" d="M649,350.3c22.1,0,40-17.9,40-40l0,0c0,22.1,17.9,40,40,40l0,0c-22.1,0-40,17.9-40,40l0,0
		C689,368.2,671.1,350.3,649,350.3L649,350.3z"/>
</g>
<path class="st2" d="M-523.1,12h-15.8c0-15.5-12.6-28.1-28.1-28.1v-15.8c15.5,0,28.1-12.6,28.1-28.1h15.8
	c0,15.5,12.6,28.1,28.1,28.1v15.8C-510.5-16.1-523.1-3.5-523.1,12z M-541.9-24c4.2,3,7.9,6.7,10.9,10.9c3-4.2,6.7-7.9,10.9-10.9
	c-4.2-3-7.9-6.7-10.9-10.9C-534-30.7-537.7-27-541.9-24z"/>
<path class="st2" d="M256.7-121.7h-15.8c0-35.3-28.8-64.1-64.1-64.1v-15.8c35.3,0,64.1-28.8,64.1-64.1h15.8
	c0,35.3,28.8,64.1,64.1,64.1v15.8C285.5-185.8,256.7-157.1,256.7-121.7z M211.5-193.7c16.3,7.9,29.5,21.1,37.4,37.4
	c7.9-16.3,21.1-29.5,37.4-37.4c-16.3-7.9-29.5-21.1-37.4-37.4C241-214.8,227.7-201.6,211.5-193.7z"/>
<path class="st2" d="M88.4,142.8H72.6c0-17.7-14.4-32.1-32.1-32.1V94.9c17.7,0,32.1-14.4,32.1-32.1h15.8c0,17.7,14.4,32.1,32.1,32.1
	v15.8C102.8,110.7,88.4,125.1,88.4,142.8z M66.8,102.8c5.4,3.6,10.1,8.2,13.7,13.7c3.6-5.4,8.2-10.1,13.7-13.7
	c-5.4-3.6-10.1-8.2-13.7-13.7C76.9,94.6,72.3,99.2,66.8,102.8z"/>
<path class="st2" d="M-359.1,60h-15.8c0-17.7-14.4-32.1-32.1-32.1V12.1c17.7,0,32.1-14.4,32.1-32.1h15.8c0,17.7,14.4,32.1,32.1,32.1
	v15.8C-344.7,27.9-359.1,42.3-359.1,60z M-380.7,20c5.4,3.6,10.1,8.2,13.7,13.7c3.6-5.4,8.2-10.1,13.7-13.7
	c-5.4-3.6-10.1-8.2-13.7-13.7C-370.6,11.8-375.2,16.4-380.7,20z"/>
<path class="st2" d="M-599.1-140.1h-15.8c0-17.7-14.4-32.1-32.1-32.1V-188c17.7,0,32.1-14.4,32.1-32.1h15.8
	c0,17.7,14.4,32.1,32.1,32.1v15.8C-584.7-172.2-599.1-157.8-599.1-140.1z M-620.7-180.1c5.4,3.6,10.1,8.2,13.7,13.7
	c3.6-5.4,8.2-10.1,13.7-13.7c-5.4-3.6-10.1-8.2-13.7-13.7C-610.6-188.3-615.2-183.6-620.7-180.1z"/>
<path class="st2" d="M-279.1-148h-15.8c0-17.7-14.4-32.1-32.1-32.1v-15.8c17.7,0,32.1-14.4,32.1-32.1h15.8
	c0,17.7,14.4,32.1,32.1,32.1v15.8C-264.7-180.1-279.1-165.7-279.1-148z M-300.7-188c5.4,3.6,10.1,8.2,13.7,13.7
	c3.6-5.4,8.2-10.1,13.7-13.7c-5.4-3.6-10.1-8.2-13.7-13.7C-290.6-196.2-295.2-191.6-300.7-188z"/>
<path class="st2" d="M-463.1,284h-15.8c0-17.7-14.4-32.1-32.1-32.1v-15.8c17.7,0,32.1-14.4,32.1-32.1h15.8
	c0,17.7,14.4,32.1,32.1,32.1v15.8C-448.7,251.9-463.1,266.3-463.1,284z M-484.7,244c5.4,3.6,10.1,8.2,13.7,13.7
	c3.6-5.4,8.2-10.1,13.7-13.7c-5.4-3.6-10.1-8.2-13.7-13.7C-474.6,235.8-479.2,240.4-484.7,244z"/>
<path class="st2" d="M-287.1,284h-15.8c0-57.4-46.7-104.1-104.1-104.1v-15.8c57.4,0,104.1-46.7,104.1-104.1h15.8
	c0,57.4,46.7,104.1,104.1,104.1v15.8C-240.4,179.9-287.1,226.6-287.1,284z M-364.2,172c31.7,12.2,57,37.5,69.2,69.2
	c12.2-31.7,37.5-57,69.2-69.2c-31.7-12.2-57-37.5-69.2-69.2C-307.2,134.5-332.5,159.8-364.2,172z"/>
<path class="st2" d="M57-73.7H46.2c0-30.1-24.5-54.6-54.6-54.6v-10.8c30.1,0,54.6-24.5,54.6-54.6H57c0,30.1,24.5,54.6,54.6,54.6
	v10.8C81.5-128.3,57-103.8,57-73.7z M17.6-133.7c15.2,6.6,27.4,18.8,34,34c6.6-15.2,18.8-27.4,34-34c-15.2-6.6-27.4-18.8-34-34
	C45-152.5,32.8-140.3,17.6-133.7z"/>
</svg>
